<?xml version="1.0" standalone="no"?>
<!DOCTYPE svg PUBLIC "-//W3C//DTD SVG 20010904//EN"
 "http://www.w3.org/TR/2001/REC-SVG-20010904/DTD/svg10.dtd">
<svg version="1.0" xmlns="http://www.w3.org/2000/svg"
 width="512.000000pt" height="512.000000pt" viewBox="0 0 512.000000 512.000000"
 preserveAspectRatio="xMidYMid meet">

<g transform="translate(0.000000,512.000000) scale(0.100000,-0.100000)"
fill="#000000" stroke="none">
<path d="M2380 5114 c-19 -2 -78 -9 -130 -14 -330 -36 -695 -160 -990 -336
-375 -224 -680 -529 -904 -904 -175 -292 -291 -632 -338 -990 -16 -123 -16
-497 0 -620 82 -623 356 -1150 820 -1581 256 -239 575 -425 922 -539 274 -91
491 -124 800 -124 228 0 329 9 530 50 689 141 1304 583 1674 1204 175 292 291
632 338 990 16 123 16 497 0 620 -47 358 -163 698 -338 990 -224 375 -529 680
-904 904 -289 173 -634 291 -980 336 -88 12 -438 21 -500 14z m30 -760 l0
-466 -137 -204 c-105 -156 -143 -206 -167 -216 -61 -25 -202 -128 -271 -197
-38 -39 -74 -71 -79 -71 -12 0 -1076 613 -1076 620 0 3 31 46 67 95 78 104
264 298 375 391 311 260 727 442 1143 498 55 8 110 14 123 15 l22 1 0 -466z
m436 451 c422 -56 837 -235 1152 -499 111 -93 297 -287 375 -391 36 -49 67
-92 67 -95 0 -7 -1064 -620 -1076 -620 -5 0 -41 32 -79 71 -69 69 -210 172
-271 197 -24 10 -62 60 -167 216 l-137 204 0 466 c0 287 4 466 9 466 6 0 63
-7 127 -15z m-186 -1372 c51 -76 103 -148 114 -161 12 -13 60 -44 107 -68 264
-136 412 -395 396 -689 -17 -300 -211 -546 -513 -647 -59 -19 -89 -23 -204
-23 -115 0 -145 4 -204 23 -302 101 -496 347 -513 647 -16 294 132 553 396
689 47 24 95 55 107 68 11 13 63 85 114 161 51 75 96 137 100 137 4 0 49 -62
100 -137z m-1590 -183 c289 -166 529 -306 533 -310 4 -4 -3 -45 -17 -92 -54
-187 -54 -389 0 -576 14 -47 21 -88 17 -92 -4 -4 -244 -144 -533 -310 -289
-166 -529 -305 -533 -307 -21 -13 -150 333 -187 504 -67 308 -67 678 0 986 37
171 166 516 187 504 4 -2 244 -141 533 -307z m3556 234 c46 -99 120 -320 144
-431 67 -308 67 -678 0 -986 -37 -171 -166 -517 -187 -504 -4 2 -244 141 -533
307 -289 166 -529 306 -533 310 -4 4 3 45 17 92 54 187 54 389 0 575 -14 47
-22 88 -19 91 6 7 1068 621 1073 622 2 0 19 -34 38 -76z m-2649 -1755 c98 -68
224 -125 336 -154 l92 -23 3 -626 c1 -393 -1 -626 -7 -626 -35 0 -260 34 -335
51 -328 73 -690 250 -944 463 -111 93 -297 287 -375 391 -36 50 -67 92 -67 95
0 3 243 145 540 316 l540 312 72 -74 c39 -40 104 -96 145 -125z m1986 -149
c262 -151 477 -277 477 -280 0 -3 -31 -45 -67 -95 -78 -104 -264 -298 -375
-391 -254 -213 -616 -390 -944 -463 -75 -17 -300 -51 -335 -51 -6 0 -8 233 -7
626 l3 626 93 23 c179 46 359 151 482 282 l65 69 66 -35 c36 -20 280 -160 542
-311z"/>
<path d="M2456 3164 c-61 -19 -90 -37 -144 -88 -85 -80 -119 -195 -75 -254 71
-94 190 -93 251 2 33 50 40 56 74 56 34 0 58 -24 58 -59 0 -37 -26 -58 -79
-67 -55 -9 -107 -53 -121 -102 -17 -64 -12 -211 10 -259 50 -112 210 -112 260
0 11 23 20 56 20 72 0 24 7 34 35 49 51 28 112 98 143 164 23 48 27 70 27 142
-1 106 -33 184 -103 253 -92 90 -241 128 -356 91z"/>
<path d="M2487 2228 c-38 -22 -77 -86 -77 -124 1 -37 39 -104 72 -124 20 -12
51 -20 79 -20 123 0 190 138 112 231 -52 61 -120 75 -186 37z"/>
</g>
</svg>
